<svg width="230" height="150" viewBox="0 0 230 150" fill="none" xmlns="http://www.w3.org/2000/svg">
<g clip-path="url(#clip0_61_2)">
<path d="M113.68 150.001C112.921 150.001 112.167 149.789 111.502 149.38L104.568 145.009C103.532 144.392 104.037 144.174 104.379 144.048C105.76 143.533 106.04 143.417 107.514 142.526C107.669 142.432 107.872 142.465 108.03 142.564L113.358 145.931C113.55 146.041 113.823 146.041 114.001 145.931L134.772 133.164C134.965 133.047 135.089 132.809 135.089 132.566V107.042C135.089 106.788 134.965 106.561 134.768 106.433L114.005 93.6771C113.813 93.5553 113.558 93.5553 113.366 93.6771L92.6073 106.433C92.4061 106.555 92.2782 106.793 92.2782 107.037V132.56C92.2782 132.804 92.403 133.036 92.6006 133.152L98.2885 136.652C101.377 138.296 103.264 136.358 103.264 134.409V109.218C103.264 108.858 103.529 108.581 103.867 108.581H106.498C106.826 108.581 107.096 108.858 107.096 109.218V134.42C107.096 138.805 104.85 141.324 100.945 141.324C99.7443 141.324 98.7981 141.324 96.1568 139.94L90.708 136.596C89.3614 135.766 88.5295 134.215 88.5295 132.56V107.037C88.5295 105.376 89.3614 103.826 90.708 103.006L111.5 90.2334C112.815 89.4417 114.562 89.4417 115.867 90.2334L136.633 103.012C137.974 103.837 138.812 105.381 138.812 107.042V132.566C138.812 134.221 137.974 135.766 136.633 136.596L115.867 149.369C115.202 149.779 114.448 149.989 113.678 149.989" fill="#689F63"/>
<path d="M120.096 132.413C111.008 132.413 109.103 127.971 109.103 124.245C109.103 123.89 109.371 123.608 109.704 123.608H112.387C112.683 123.608 112.933 123.838 112.98 124.15C113.385 127.061 114.591 128.529 120.087 128.529C124.465 128.529 126.326 127.476 126.326 125.004C126.326 123.581 125.796 122.523 118.995 121.815C113.307 121.217 109.792 119.883 109.792 115.038C109.792 110.576 113.328 107.918 119.25 107.918C125.9 107.918 129.196 110.376 129.612 115.658C129.628 115.841 129.565 116.018 129.451 116.151C129.336 116.278 129.175 116.356 129.009 116.356H126.311C126.03 116.356 125.785 116.145 125.728 115.857C125.078 112.796 123.508 111.816 119.24 111.816C114.461 111.816 113.905 113.588 113.905 114.916C113.905 116.527 114.56 116.998 121.007 117.906C127.392 118.808 130.423 120.082 130.423 124.86C130.423 129.677 126.648 132.439 120.066 132.439M145.366 105.371H146.062C146.634 105.371 146.744 104.945 146.744 104.696C146.744 104.043 146.322 104.043 146.088 104.043H145.371L145.366 105.371ZM144.518 103.279H146.062C146.593 103.279 147.633 103.279 147.633 104.541C147.633 105.421 147.102 105.604 146.785 105.715C147.404 105.759 147.445 106.191 147.529 106.8C147.57 107.182 147.638 107.841 147.763 108.062H146.811C146.785 107.841 146.64 106.623 146.64 106.556C146.577 106.285 146.489 106.152 146.172 106.152H145.387V108.068H144.518V103.279ZM142.662 105.659C142.662 107.641 144.165 109.247 146.01 109.247C147.872 109.247 149.374 107.608 149.374 105.659C149.374 103.672 147.851 102.094 146.005 102.094C144.186 102.094 142.657 103.649 142.657 105.654M150.019 105.67C150.019 108.018 148.215 109.933 146.016 109.933C143.832 109.933 142.012 108.04 142.012 105.67C142.012 103.256 143.874 101.407 146.016 101.407C148.173 101.407 150.014 103.262 150.014 105.67" fill="#689F63"/>
<path fill-rule="evenodd" clip-rule="evenodd" d="M49.3596 50.1329C49.3596 49.1142 48.8553 48.1786 48.0297 47.672L26.0077 34.1795C25.636 33.947 25.2195 33.8252 24.7973 33.8086H24.5696C24.1474 33.8252 23.731 33.947 23.353 34.1795L1.33205 47.672C0.511607 48.1813 0 49.117 0 50.1357L0.0483531 86.4773C0.0483531 86.9812 0.292718 87.4518 0.708658 87.7009C1.1142 87.9666 1.62373 87.9666 2.02927 87.7009L15.121 79.7173C15.9477 79.1935 16.452 78.2678 16.452 77.259V60.2814C16.452 59.2682 16.9563 58.3325 17.7804 57.8287L23.354 54.4104C23.7679 54.1558 24.2223 54.0295 24.685 54.0295C25.1405 54.0295 25.6053 54.1547 26.0077 54.4099L31.5787 57.827C32.4033 58.3308 32.9097 59.2665 32.9097 60.2797V77.2563C32.9097 78.2639 33.4208 79.1941 34.2433 79.7145L47.3267 87.6926C47.7375 87.9528 48.2486 87.9528 48.6577 87.6926C49.0612 87.4435 49.317 86.9728 49.317 86.469L49.3596 50.1329ZM153.276 69.0545C153.276 69.3075 153.15 69.5417 152.943 69.6668L145.379 74.3098C145.174 74.4354 144.92 74.4354 144.716 74.3098L137.151 69.6668C136.943 69.5412 136.818 69.307 136.818 69.0545V59.7554C136.818 59.5018 136.943 59.2682 137.145 59.1408L144.705 54.4902C144.913 54.3628 145.168 54.3628 145.376 54.4902L152.941 59.1408C153.149 59.2682 153.274 59.5018 153.274 59.7554L153.276 69.0545ZM155.319 0.179263C154.907 -0.0654506 154.404 -0.0588068 153.997 0.194212C153.591 0.448891 153.341 0.913957 153.341 1.41778V37.4051C153.341 37.7594 153.164 38.0861 152.876 38.2632C152.59 38.4404 152.234 38.4404 151.945 38.2632L146.429 34.8799C145.607 34.3738 144.595 34.3738 143.771 34.8799L121.742 48.4183C120.919 48.9221 120.411 49.8578 120.411 50.8654V77.95C120.411 78.9632 120.919 79.8933 121.742 80.4027L143.771 93.9505C144.593 94.4543 145.606 94.4543 146.431 93.9505L168.461 80.3971C169.282 79.8878 169.792 78.9577 169.792 77.9445V10.4434C169.792 9.41582 169.266 8.47073 168.424 7.96857L155.319 0.179263ZM228.677 59.5107C229.496 59.0046 229.999 58.0701 229.999 57.0624V50.4983C229.999 49.4885 229.495 48.5567 228.675 48.0484L206.786 34.5172C205.96 34.0079 204.946 34.0079 204.119 34.5172L182.095 48.054C181.268 48.5633 180.764 49.4935 180.764 50.5067V77.5802C180.764 78.5989 181.279 79.5401 182.105 80.0439L203.989 93.326C204.795 93.8187 205.783 93.8243 206.599 93.3426L219.836 85.5084C220.252 85.2593 220.518 84.7887 220.518 84.2793C220.518 83.77 220.263 83.2938 219.847 83.0447L197.688 69.5024C197.272 69.2533 197.017 68.7827 197.017 68.2788V59.7858C197.017 59.2787 197.266 58.8114 197.682 58.5589L204.577 54.3235C204.987 54.0688 205.492 54.0688 205.902 54.3235L212.802 58.5589C213.213 58.8081 213.467 59.2787 213.467 59.7825V66.4595C213.467 66.9634 213.722 67.434 214.133 67.6886C214.544 67.9378 215.053 67.9378 215.464 67.6831L228.677 59.5107Z" fill="#333333"/>
<path fill-rule="evenodd" clip-rule="evenodd" d="M205.131 58.244C205.287 58.146 205.482 58.146 205.64 58.244L209.867 60.8407C210.025 60.9381 210.122 61.1175 210.122 61.3113V66.51C210.122 66.7038 210.025 66.8832 209.867 66.9806L205.64 69.5773C205.482 69.6753 205.287 69.6753 205.131 69.5773L200.906 66.9806C200.745 66.8832 200.646 66.7038 200.646 66.51V61.3113C200.646 61.1175 200.74 60.9381 200.901 60.8407L205.131 58.244Z" fill="#689F63"/>
<mask id="mask0_61_2" style="mask-type:luminance" maskUnits="userSpaceOnUse" x="60" y="34" width="50" height="60">
<path d="M83.5683 34.6524L61.6638 48.1155C60.8434 48.6194 60.3401 49.5495 60.3401 50.5549V77.5C60.3401 78.506 60.8434 79.4356 61.6638 79.9394L83.5698 93.413C84.3887 93.9152 85.3984 93.9152 86.2163 93.413L108.119 79.9394C108.935 79.4356 109.439 78.5054 109.439 77.5V50.5549C109.439 49.5495 108.935 48.6194 108.113 48.1155L86.2142 34.6524C85.8034 34.4016 85.3459 34.2759 84.8884 34.2759C84.4308 34.2759 83.9733 34.4016 83.5626 34.6524" fill="white"/>
</mask>
<g mask="url(#mask0_61_2)">
<path d="M131.571 45.8295L69.8483 13.6126L38.2004 82.3616L99.9218 114.58L131.571 45.8295Z" fill="url(#paint0_linear_61_2)"/>
</g>
<mask id="mask1_61_2" style="mask-type:luminance" maskUnits="userSpaceOnUse" x="60" y="34" width="49" height="60">
<path d="M60.8828 79.2108C61.0923 79.5004 61.3544 79.7512 61.6627 79.9394L80.4528 91.4969L83.5828 93.4125C84.0507 93.7004 84.5841 93.8222 85.1082 93.7807C85.2829 93.7657 85.4576 93.7308 85.6282 93.6793L108.731 48.6343C108.554 48.4295 108.347 48.2579 108.115 48.1139L93.7723 39.2942L86.1907 34.6491C85.9755 34.5162 85.742 34.4221 85.5044 34.3557L60.8828 79.2108Z" fill="white"/>
</mask>
<g mask="url(#mask1_61_2)">
<path d="M34.1926 55.3584L77.7754 118.172L135.414 72.8244L91.829 10.0128L34.1926 55.3584Z" fill="url(#paint1_linear_61_2)"/>
</g>
<mask id="mask2_61_2" style="mask-type:luminance" maskUnits="userSpaceOnUse" x="61" y="34" width="49" height="60">
<path d="M84.6267 34.2915C84.2591 34.3302 83.8998 34.452 83.5686 34.6524L61.7266 48.0768L85.2792 93.7585C85.6067 93.7087 85.9291 93.5924 86.2203 93.413L108.125 79.9394C108.801 79.5219 109.263 78.8155 109.404 78.0149L85.3936 34.3374C85.2168 34.3003 85.04 34.2809 84.8581 34.2809C84.7853 34.2809 84.7125 34.2848 84.6397 34.292" fill="white"/>
</mask>
<g mask="url(#mask2_61_2)">
<path d="M61.7246 34.2809V93.7596H109.393V34.2809H61.7246Z" fill="url(#paint2_linear_61_2)"/>
</g>
</g>
<defs>
<linearGradient id="paint0_linear_61_2" x1="100.691" y1="29.6704" x2="65.7146" y2="96.6761" gradientUnits="userSpaceOnUse">
<stop offset="0.3" stop-color="#3E863D"/>
<stop offset="0.5" stop-color="#55934F"/>
<stop offset="0.8" stop-color="#5AAD45"/>
</linearGradient>
<linearGradient id="paint1_linear_61_2" x1="56.2452" y1="87.1251" x2="116.395" y2="45.3885" gradientUnits="userSpaceOnUse">
<stop offset="0.57" stop-color="#3E863D"/>
<stop offset="0.72" stop-color="#619857"/>
<stop offset="1" stop-color="#76AC64"/>
</linearGradient>
<linearGradient id="paint2_linear_61_2" x1="61.7407" y1="64.0219" x2="109.402" y2="64.0219" gradientUnits="userSpaceOnUse">
<stop offset="0.16" stop-color="#6BBF47"/>
<stop offset="0.38" stop-color="#79B461"/>
<stop offset="0.47" stop-color="#75AC64"/>
<stop offset="0.7" stop-color="#659E5A"/>
<stop offset="0.9" stop-color="#3E863D"/>
</linearGradient>
<clipPath id="clip0_61_2">
<rect width="230" height="150" fill="white"/>
</clipPath>
</defs>
</svg>
