<svg id="visual" viewBox="0 0 960 540" width="960" height="540" xmlns="http://www.w3.org/2000/svg" xmlns:xlink="http://www.w3.org/1999/xlink" version="1.1"><path d="M0 403L16 395.3C32 387.7 64 372.3 96 370.2C128 368 160 379 192 378.3C224 377.7 256 365.3 288 362.7C320 360 352 367 384 378.8C416 390.7 448 407.3 480 414.7C512 422 544 420 576 414.8C608 409.7 640 401.3 672 390C704 378.7 736 364.3 768 369.7C800 375 832 400 864 401.3C896 402.7 928 380.3 944 369.2L960 358L960 541L944 541C928 541 896 541 864 541C832 541 800 541 768 541C736 541 704 541 672 541C640 541 608 541 576 541C544 541 512 541 480 541C448 541 416 541 384 541C352 541 320 541 288 541C256 541 224 541 192 541C160 541 128 541 96 541C64 541 32 541 16 541L0 541Z" fill="#15071c"></path><path d="M0 408L16 412C32 416 64 424 96 420.8C128 417.7 160 403.3 192 394.3C224 385.3 256 381.7 288 384.3C320 387 352 396 384 403.2C416 410.3 448 415.7 480 417.7C512 419.7 544 418.3 576 414.2C608 410 640 403 672 406C704 409 736 422 768 425.2C800 428.3 832 421.7 864 415C896 408.3 928 401.7 944 398.3L960 395L960 541L944 541C928 541 896 541 864 541C832 541 800 541 768 541C736 541 704 541 672 541C640 541 608 541 576 541C544 541 512 541 480 541C448 541 416 541 384 541C352 541 320 541 288 541C256 541 224 541 192 541C160 541 128 541 96 541C64 541 32 541 16 541L0 541Z" fill="#1a0c23"></path><path d="M0 419L16 422.7C32 426.3 64 433.7 96 430.2C128 426.7 160 412.3 192 411.8C224 411.3 256 424.7 288 431.8C320 439 352 440 384 441.3C416 442.7 448 444.3 480 434.2C512 424 544 402 576 398.3C608 394.7 640 409.3 672 417.3C704 425.3 736 426.7 768 418.2C800 409.7 832 391.3 864 384.5C896 377.7 928 382.3 944 384.7L960 387L960 541L944 541C928 541 896 541 864 541C832 541 800 541 768 541C736 541 704 541 672 541C640 541 608 541 576 541C544 541 512 541 480 541C448 541 416 541 384 541C352 541 320 541 288 541C256 541 224 541 192 541C160 541 128 541 96 541C64 541 32 541 16 541L0 541Z" fill="#1f102a"></path><path d="M0 428L16 432.2C32 436.3 64 444.7 96 443.7C128 442.7 160 432.3 192 428C224 423.7 256 425.3 288 429C320 432.7 352 438.3 384 432.8C416 427.3 448 410.7 480 403.5C512 396.3 544 398.7 576 404.2C608 409.7 640 418.3 672 423.8C704 429.3 736 431.7 768 435.8C800 440 832 446 864 449.5C896 453 928 454 944 454.5L960 455L960 541L944 541C928 541 896 541 864 541C832 541 800 541 768 541C736 541 704 541 672 541C640 541 608 541 576 541C544 541 512 541 480 541C448 541 416 541 384 541C352 541 320 541 288 541C256 541 224 541 192 541C160 541 128 541 96 541C64 541 32 541 16 541L0 541Z" fill="#241331"></path><path d="M0 466L16 460.7C32 455.3 64 444.7 96 439C128 433.3 160 432.7 192 431.3C224 430 256 428 288 430.7C320 433.3 352 440.7 384 440.7C416 440.7 448 433.3 480 435.8C512 438.3 544 450.7 576 456.5C608 462.3 640 461.7 672 459.2C704 456.7 736 452.3 768 450C800 447.7 832 447.3 864 440C896 432.7 928 418.3 944 411.2L960 404L960 541L944 541C928 541 896 541 864 541C832 541 800 541 768 541C736 541 704 541 672 541C640 541 608 541 576 541C544 541 512 541 480 541C448 541 416 541 384 541C352 541 320 541 288 541C256 541 224 541 192 541C160 541 128 541 96 541C64 541 32 541 16 541L0 541Z" fill="#2a1539"></path><path d="M0 460L16 460.7C32 461.3 64 462.7 96 460.3C128 458 160 452 192 450.5C224 449 256 452 288 456.5C320 461 352 467 384 462.7C416 458.3 448 443.7 480 443C512 442.3 544 455.7 576 462.8C608 470 640 471 672 468.7C704 466.3 736 460.7 768 454.7C800 448.7 832 442.3 864 438.7C896 435 928 434 944 433.5L960 433L960 541L944 541C928 541 896 541 864 541C832 541 800 541 768 541C736 541 704 541 672 541C640 541 608 541 576 541C544 541 512 541 480 541C448 541 416 541 384 541C352 541 320 541 288 541C256 541 224 541 192 541C160 541 128 541 96 541C64 541 32 541 16 541L0 541Z" fill="#311740"></path><path d="M0 446L16 448C32 450 64 454 96 459.8C128 465.7 160 473.3 192 470.7C224 468 256 455 288 448C320 441 352 440 384 440.3C416 440.7 448 442.3 480 448.7C512 455 544 466 576 472.2C608 478.3 640 479.7 672 475.5C704 471.3 736 461.7 768 459.3C800 457 832 462 864 465.2C896 468.3 928 469.7 944 470.3L960 471L960 541L944 541C928 541 896 541 864 541C832 541 800 541 768 541C736 541 704 541 672 541C640 541 608 541 576 541C544 541 512 541 480 541C448 541 416 541 384 541C352 541 320 541 288 541C256 541 224 541 192 541C160 541 128 541 96 541C64 541 32 541 16 541L0 541Z" fill="#371948"></path><path d="M0 457L16 461.3C32 465.7 64 474.3 96 480.7C128 487 160 491 192 493.2C224 495.3 256 495.7 288 493.5C320 491.3 352 486.7 384 480.5C416 474.3 448 466.7 480 467.7C512 468.7 544 478.3 576 484C608 489.7 640 491.3 672 489.8C704 488.3 736 483.7 768 477.2C800 470.7 832 462.3 864 463.7C896 465 928 476 944 481.5L960 487L960 541L944 541C928 541 896 541 864 541C832 541 800 541 768 541C736 541 704 541 672 541C640 541 608 541 576 541C544 541 512 541 480 541C448 541 416 541 384 541C352 541 320 541 288 541C256 541 224 541 192 541C160 541 128 541 96 541C64 541 32 541 16 541L0 541Z" fill="#3e1b4f"></path><path d="M0 467L16 470.8C32 474.7 64 482.3 96 482.5C128 482.7 160 475.3 192 474.2C224 473 256 478 288 482.2C320 486.3 352 489.7 384 493.2C416 496.7 448 500.3 480 496.5C512 492.7 544 481.3 576 475.2C608 469 640 468 672 473C704 478 736 489 768 493.7C800 498.3 832 496.7 864 492.3C896 488 928 481 944 477.5L960 474L960 541L944 541C928 541 896 541 864 541C832 541 800 541 768 541C736 541 704 541 672 541C640 541 608 541 576 541C544 541 512 541 480 541C448 541 416 541 384 541C352 541 320 541 288 541C256 541 224 541 192 541C160 541 128 541 96 541C64 541 32 541 16 541L0 541Z" fill="#451c57"></path><path d="M0 499L16 496.7C32 494.3 64 489.7 96 486.8C128 484 160 483 192 483C224 483 256 484 288 486.8C320 489.7 352 494.3 384 495.5C416 496.7 448 494.3 480 495.2C512 496 544 500 576 502C608 504 640 504 672 504.7C704 505.3 736 506.7 768 506.2C800 505.7 832 503.3 864 504.2C896 505 928 509 944 511L960 513L960 541L944 541C928 541 896 541 864 541C832 541 800 541 768 541C736 541 704 541 672 541C640 541 608 541 576 541C544 541 512 541 480 541C448 541 416 541 384 541C352 541 320 541 288 541C256 541 224 541 192 541C160 541 128 541 96 541C64 541 32 541 16 541L0 541Z" fill="#4d1e5f"></path><path d="M0 518L16 515.5C32 513 64 508 96 507.2C128 506.3 160 509.7 192 509.3C224 509 256 505 288 502.5C320 500 352 499 384 501.2C416 503.3 448 508.7 480 510.8C512 513 544 512 576 510C608 508 640 505 672 502.5C704 500 736 498 768 501.5C800 505 832 514 864 518.7C896 523.3 928 523.7 944 523.8L960 524L960 541L944 541C928 541 896 541 864 541C832 541 800 541 768 541C736 541 704 541 672 541C640 541 608 541 576 541C544 541 512 541 480 541C448 541 416 541 384 541C352 541 320 541 288 541C256 541 224 541 192 541C160 541 128 541 96 541C64 541 32 541 16 541L0 541Z" fill="#541f66"></path><path d="M0 513L16 514.5C32 516 64 519 96 519.2C128 519.3 160 516.7 192 516.7C224 516.7 256 519.3 288 522.3C320 525.3 352 528.7 384 530.2C416 531.7 448 531.3 480 528.7C512 526 544 521 576 519.2C608 517.3 640 518.7 672 521.2C704 523.7 736 527.3 768 529C800 530.7 832 530.3 864 529.8C896 529.3 928 528.7 944 528.3L960 528L960 541L944 541C928 541 896 541 864 541C832 541 800 541 768 541C736 541 704 541 672 541C640 541 608 541 576 541C544 541 512 541 480 541C448 541 416 541 384 541C352 541 320 541 288 541C256 541 224 541 192 541C160 541 128 541 96 541C64 541 32 541 16 541L0 541Z" fill="#5c206e"></path></svg>