<svg id="visual" viewBox="0 0 960 540" width="960" height="540" xmlns="http://www.w3.org/2000/svg" xmlns:xlink="http://www.w3.org/1999/xlink" version="1.1"><path d="M0 415L9.3 416.5C18.7 418 37.3 421 56.2 419.8C75 418.7 94 413.3 112.8 411.3C131.7 409.3 150.3 410.7 169.2 414.5C188 418.3 207 424.7 225.8 425.7C244.7 426.7 263.3 422.3 282.2 421C301 419.7 320 421.3 338.8 423.3C357.7 425.3 376.3 427.7 395.2 424.5C414 421.3 433 412.7 451.8 410.3C470.7 408 489.3 412 508.2 412.3C527 412.7 546 409.3 564.8 407.8C583.7 406.3 602.3 406.7 621.2 410.5C640 414.3 659 421.7 677.8 420.8C696.7 420 715.3 411 734.2 410C753 409 772 416 790.8 421.2C809.7 426.3 828.3 429.7 847.2 426.3C866 423 885 413 903.8 408C922.7 403 941.3 403 950.7 403L960 403L960 541L950.7 541C941.3 541 922.7 541 903.8 541C885 541 866 541 847.2 541C828.3 541 809.7 541 790.8 541C772 541 753 541 734.2 541C715.3 541 696.7 541 677.8 541C659 541 640 541 621.2 541C602.3 541 583.7 541 564.8 541C546 541 527 541 508.2 541C489.3 541 470.7 541 451.8 541C433 541 414 541 395.2 541C376.3 541 357.7 541 338.8 541C320 541 301 541 282.2 541C263.3 541 244.7 541 225.8 541C207 541 188 541 169.2 541C150.3 541 131.7 541 112.8 541C94 541 75 541 56.2 541C37.3 541 18.7 541 9.3 541L0 541Z" fill="#15071c"></path><path d="M0 445L9.3 441.8C18.7 438.7 37.3 432.3 56.2 428C75 423.7 94 421.3 112.8 423.8C131.7 426.3 150.3 433.7 169.2 437.8C188 442 207 443 225.8 441.7C244.7 440.3 263.3 436.7 282.2 435.5C301 434.3 320 435.7 338.8 433.7C357.7 431.7 376.3 426.3 395.2 424.8C414 423.3 433 425.7 451.8 425.7C470.7 425.7 489.3 423.3 508.2 421.7C527 420 546 419 564.8 422.2C583.7 425.3 602.3 432.7 621.2 433.2C640 433.7 659 427.3 677.8 424.8C696.7 422.3 715.3 423.7 734.2 423.3C753 423 772 421 790.8 424.2C809.7 427.3 828.3 435.7 847.2 436.8C866 438 885 432 903.8 432C922.7 432 941.3 438 950.7 441L960 444L960 541L950.7 541C941.3 541 922.7 541 903.8 541C885 541 866 541 847.2 541C828.3 541 809.7 541 790.8 541C772 541 753 541 734.2 541C715.3 541 696.7 541 677.8 541C659 541 640 541 621.2 541C602.3 541 583.7 541 564.8 541C546 541 527 541 508.2 541C489.3 541 470.7 541 451.8 541C433 541 414 541 395.2 541C376.3 541 357.7 541 338.8 541C320 541 301 541 282.2 541C263.3 541 244.7 541 225.8 541C207 541 188 541 169.2 541C150.3 541 131.7 541 112.8 541C94 541 75 541 56.2 541C37.3 541 18.7 541 9.3 541L0 541Z" fill="#1b0e24"></path><path d="M0 438L9.3 438.8C18.7 439.7 37.3 441.3 56.2 440.7C75 440 94 437 112.8 438.5C131.7 440 150.3 446 169.2 447.7C188 449.3 207 446.7 225.8 446C244.7 445.3 263.3 446.7 282.2 446.5C301 446.3 320 444.7 338.8 443.2C357.7 441.7 376.3 440.3 395.2 441.5C414 442.7 433 446.3 451.8 444.7C470.7 443 489.3 436 508.2 435.2C527 434.3 546 439.7 564.8 440.3C583.7 441 602.3 437 621.2 436C640 435 659 437 677.8 437.3C696.7 437.7 715.3 436.3 734.2 438.5C753 440.7 772 446.3 790.8 447.5C809.7 448.7 828.3 445.3 847.2 442.8C866 440.3 885 438.7 903.8 440C922.7 441.3 941.3 445.7 950.7 447.8L960 450L960 541L950.7 541C941.3 541 922.7 541 903.8 541C885 541 866 541 847.2 541C828.3 541 809.7 541 790.8 541C772 541 753 541 734.2 541C715.3 541 696.7 541 677.8 541C659 541 640 541 621.2 541C602.3 541 583.7 541 564.8 541C546 541 527 541 508.2 541C489.3 541 470.7 541 451.8 541C433 541 414 541 395.2 541C376.3 541 357.7 541 338.8 541C320 541 301 541 282.2 541C263.3 541 244.7 541 225.8 541C207 541 188 541 169.2 541C150.3 541 131.7 541 112.8 541C94 541 75 541 56.2 541C37.3 541 18.7 541 9.3 541L0 541Z" fill="#21112d"></path><path d="M0 455L9.3 454C18.7 453 37.3 451 56.2 450.7C75 450.3 94 451.7 112.8 453.3C131.7 455 150.3 457 169.2 459C188 461 207 463 225.8 462.7C244.7 462.3 263.3 459.7 282.2 459.5C301 459.3 320 461.7 338.8 460.7C357.7 459.7 376.3 455.3 395.2 451.8C414 448.3 433 445.7 451.8 446.5C470.7 447.3 489.3 451.7 508.2 452.5C527 453.3 546 450.7 564.8 449.3C583.7 448 602.3 448 621.2 449.5C640 451 659 454 677.8 456C696.7 458 715.3 459 734.2 460.2C753 461.3 772 462.7 790.8 462.2C809.7 461.7 828.3 459.3 847.2 456.2C866 453 885 449 903.8 449.7C922.7 450.3 941.3 455.7 950.7 458.3L960 461L960 541L950.7 541C941.3 541 922.7 541 903.8 541C885 541 866 541 847.2 541C828.3 541 809.7 541 790.8 541C772 541 753 541 734.2 541C715.3 541 696.7 541 677.8 541C659 541 640 541 621.2 541C602.3 541 583.7 541 564.8 541C546 541 527 541 508.2 541C489.3 541 470.7 541 451.8 541C433 541 414 541 395.2 541C376.3 541 357.7 541 338.8 541C320 541 301 541 282.2 541C263.3 541 244.7 541 225.8 541C207 541 188 541 169.2 541C150.3 541 131.7 541 112.8 541C94 541 75 541 56.2 541C37.3 541 18.7 541 9.3 541L0 541Z" fill="#281436"></path><path d="M0 454L9.3 457.8C18.7 461.7 37.3 469.3 56.2 469.7C75 470 94 463 112.8 460.8C131.7 458.7 150.3 461.3 169.2 461.8C188 462.3 207 460.7 225.8 462.5C244.7 464.3 263.3 469.7 282.2 469.2C301 468.7 320 462.3 338.8 462.7C357.7 463 376.3 470 395.2 470.3C414 470.7 433 464.3 451.8 462.5C470.7 460.7 489.3 463.3 508.2 463.2C527 463 546 460 564.8 459.3C583.7 458.7 602.3 460.3 621.2 460.2C640 460 659 458 677.8 460.3C696.7 462.7 715.3 469.3 734.2 470.8C753 472.3 772 468.7 790.8 467.8C809.7 467 828.3 469 847.2 470.2C866 471.3 885 471.7 903.8 469C922.7 466.3 941.3 460.7 950.7 457.8L960 455L960 541L950.7 541C941.3 541 922.7 541 903.8 541C885 541 866 541 847.2 541C828.3 541 809.7 541 790.8 541C772 541 753 541 734.2 541C715.3 541 696.7 541 677.8 541C659 541 640 541 621.2 541C602.3 541 583.7 541 564.8 541C546 541 527 541 508.2 541C489.3 541 470.7 541 451.8 541C433 541 414 541 395.2 541C376.3 541 357.7 541 338.8 541C320 541 301 541 282.2 541C263.3 541 244.7 541 225.8 541C207 541 188 541 169.2 541C150.3 541 131.7 541 112.8 541C94 541 75 541 56.2 541C37.3 541 18.7 541 9.3 541L0 541Z" fill="#30173f"></path><path d="M0 482L9.3 480.7C18.7 479.3 37.3 476.7 56.2 475.2C75 473.7 94 473.3 112.8 474.5C131.7 475.7 150.3 478.3 169.2 480.7C188 483 207 485 225.8 483.5C244.7 482 263.3 477 282.2 475C301 473 320 474 338.8 474.7C357.7 475.3 376.3 475.7 395.2 476.3C414 477 433 478 451.8 479.2C470.7 480.3 489.3 481.7 508.2 483C527 484.3 546 485.7 564.8 486.2C583.7 486.7 602.3 486.3 621.2 485C640 483.7 659 481.3 677.8 481.2C696.7 481 715.3 483 734.2 483.2C753 483.3 772 481.7 790.8 481C809.7 480.3 828.3 480.7 847.2 481.8C866 483 885 485 903.8 483C922.7 481 941.3 475 950.7 472L960 469L960 541L950.7 541C941.3 541 922.7 541 903.8 541C885 541 866 541 847.2 541C828.3 541 809.7 541 790.8 541C772 541 753 541 734.2 541C715.3 541 696.7 541 677.8 541C659 541 640 541 621.2 541C602.3 541 583.7 541 564.8 541C546 541 527 541 508.2 541C489.3 541 470.7 541 451.8 541C433 541 414 541 395.2 541C376.3 541 357.7 541 338.8 541C320 541 301 541 282.2 541C263.3 541 244.7 541 225.8 541C207 541 188 541 169.2 541C150.3 541 131.7 541 112.8 541C94 541 75 541 56.2 541C37.3 541 18.7 541 9.3 541L0 541Z" fill="#381949"></path><path d="M0 483L9.3 483C18.7 483 37.3 483 56.2 484.5C75 486 94 489 112.8 491.5C131.7 494 150.3 496 169.2 494C188 492 207 486 225.8 484C244.7 482 263.3 484 282.2 484.3C301 484.7 320 483.3 338.8 483.2C357.7 483 376.3 484 395.2 484.7C414 485.3 433 485.7 451.8 486.3C470.7 487 489.3 488 508.2 488.3C527 488.7 546 488.3 564.8 487.2C583.7 486 602.3 484 621.2 484.5C640 485 659 488 677.8 490.3C696.7 492.7 715.3 494.3 734.2 495.3C753 496.3 772 496.7 790.8 494C809.7 491.3 828.3 485.7 847.2 483C866 480.3 885 480.7 903.8 482C922.7 483.3 941.3 485.7 950.7 486.8L960 488L960 541L950.7 541C941.3 541 922.7 541 903.8 541C885 541 866 541 847.2 541C828.3 541 809.7 541 790.8 541C772 541 753 541 734.2 541C715.3 541 696.7 541 677.8 541C659 541 640 541 621.2 541C602.3 541 583.7 541 564.8 541C546 541 527 541 508.2 541C489.3 541 470.7 541 451.8 541C433 541 414 541 395.2 541C376.3 541 357.7 541 338.8 541C320 541 301 541 282.2 541C263.3 541 244.7 541 225.8 541C207 541 188 541 169.2 541C150.3 541 131.7 541 112.8 541C94 541 75 541 56.2 541C37.3 541 18.7 541 9.3 541L0 541Z" fill="#401b52"></path><path d="M0 507L9.3 507.2C18.7 507.3 37.3 507.7 56.2 506.5C75 505.3 94 502.7 112.8 500.2C131.7 497.7 150.3 495.3 169.2 494.2C188 493 207 493 225.8 494.8C244.7 496.7 263.3 500.3 282.2 502.8C301 505.3 320 506.7 338.8 506.3C357.7 506 376.3 504 395.2 503.7C414 503.3 433 504.7 451.8 505.3C470.7 506 489.3 506 508.2 505.7C527 505.3 546 504.7 564.8 504.2C583.7 503.7 602.3 503.3 621.2 501.7C640 500 659 497 677.8 496.3C696.7 495.7 715.3 497.3 734.2 498C753 498.7 772 498.3 790.8 498.8C809.7 499.3 828.3 500.7 847.2 499.8C866 499 885 496 903.8 496.5C922.7 497 941.3 501 950.7 503L960 505L960 541L950.7 541C941.3 541 922.7 541 903.8 541C885 541 866 541 847.2 541C828.3 541 809.7 541 790.8 541C772 541 753 541 734.2 541C715.3 541 696.7 541 677.8 541C659 541 640 541 621.2 541C602.3 541 583.7 541 564.8 541C546 541 527 541 508.2 541C489.3 541 470.7 541 451.8 541C433 541 414 541 395.2 541C376.3 541 357.7 541 338.8 541C320 541 301 541 282.2 541C263.3 541 244.7 541 225.8 541C207 541 188 541 169.2 541C150.3 541 131.7 541 112.8 541C94 541 75 541 56.2 541C37.3 541 18.7 541 9.3 541L0 541Z" fill="#491d5b"></path><path d="M0 512L9.3 513.2C18.7 514.3 37.3 516.7 56.2 517.7C75 518.7 94 518.3 112.8 516.2C131.7 514 150.3 510 169.2 509.8C188 509.7 207 513.3 225.8 514.2C244.7 515 263.3 513 282.2 512.3C301 511.7 320 512.3 338.8 513.8C357.7 515.3 376.3 517.7 395.2 517.8C414 518 433 516 451.8 515.5C470.7 515 489.3 516 508.2 516.7C527 517.3 546 517.7 564.8 517.5C583.7 517.3 602.3 516.7 621.2 516.2C640 515.7 659 515.3 677.8 514.3C696.7 513.3 715.3 511.7 734.2 511C753 510.3 772 510.7 790.8 511.2C809.7 511.7 828.3 512.3 847.2 512.8C866 513.3 885 513.7 903.8 514.5C922.7 515.3 941.3 516.7 950.7 517.3L960 518L960 541L950.7 541C941.3 541 922.7 541 903.8 541C885 541 866 541 847.2 541C828.3 541 809.7 541 790.8 541C772 541 753 541 734.2 541C715.3 541 696.7 541 677.8 541C659 541 640 541 621.2 541C602.3 541 583.7 541 564.8 541C546 541 527 541 508.2 541C489.3 541 470.7 541 451.8 541C433 541 414 541 395.2 541C376.3 541 357.7 541 338.8 541C320 541 301 541 282.2 541C263.3 541 244.7 541 225.8 541C207 541 188 541 169.2 541C150.3 541 131.7 541 112.8 541C94 541 75 541 56.2 541C37.3 541 18.7 541 9.3 541L0 541Z" fill="#521f65"></path><path d="M0 525L9.3 524C18.7 523 37.3 521 56.2 520.7C75 520.3 94 521.7 112.8 523.5C131.7 525.3 150.3 527.7 169.2 528.3C188 529 207 528 225.8 526.5C244.7 525 263.3 523 282.2 522.8C301 522.7 320 524.3 338.8 525.3C357.7 526.3 376.3 526.7 395.2 525.5C414 524.3 433 521.7 451.8 521.2C470.7 520.7 489.3 522.3 508.2 522.3C527 522.3 546 520.7 564.8 520C583.7 519.3 602.3 519.7 621.2 520.7C640 521.7 659 523.3 677.8 524.2C696.7 525 715.3 525 734.2 525.8C753 526.7 772 528.3 790.8 527.2C809.7 526 828.3 522 847.2 520.8C866 519.7 885 521.3 903.8 522.3C922.7 523.3 941.3 523.7 950.7 523.8L960 524L960 541L950.7 541C941.3 541 922.7 541 903.8 541C885 541 866 541 847.2 541C828.3 541 809.7 541 790.8 541C772 541 753 541 734.2 541C715.3 541 696.7 541 677.8 541C659 541 640 541 621.2 541C602.3 541 583.7 541 564.8 541C546 541 527 541 508.2 541C489.3 541 470.7 541 451.8 541C433 541 414 541 395.2 541C376.3 541 357.7 541 338.8 541C320 541 301 541 282.2 541C263.3 541 244.7 541 225.8 541C207 541 188 541 169.2 541C150.3 541 131.7 541 112.8 541C94 541 75 541 56.2 541C37.3 541 18.7 541 9.3 541L0 541Z" fill="#5c206e"></path></svg>