<svg width="960" height="540" viewBox="0 0 960 540" fill="none" xmlns="http://www.w3.org/2000/svg">
<g clip-path="url(#clip0_69_10)">
<path d="M0 416L9.3 411.8C18.7 407.7 37.3 399.3 56.2 399.3C75 399.3 94 407.7 112.8 412.3C131.7 417 150.3 418 169.2 421.3C188 424.7 207 430.3 225.8 428C244.7 425.7 263.3 415.3 282.2 410.3C301 405.3 320 405.7 338.8 412.7C357.7 419.7 376.3 433.3 395.2 436C414 438.7 433 430.3 451.8 428.7C470.7 427 489.3 432 508.2 430.3C527 428.7 546 420.3 564.8 420.7C583.7 421 602.3 430 621.2 435.2C640 440.3 659 441.7 677.8 435.8C696.7 430 715.3 417 734.2 412.3C753 407.7 772 411.3 790.8 413.7C809.7 416 828.3 417 847.2 414.8C866 412.7 885 407.3 903.8 405.5C922.7 403.7 941.3 405.3 950.7 406.2L960 407V541H950.7C941.3 541 922.7 541 903.8 541C885 541 866 541 847.2 541C828.3 541 809.7 541 790.8 541C772 541 753 541 734.2 541C715.3 541 696.7 541 677.8 541C659 541 640 541 621.2 541C602.3 541 583.7 541 564.8 541C546 541 527 541 508.2 541C489.3 541 470.7 541 451.8 541C433 541 414 541 395.2 541C376.3 541 357.7 541 338.8 541C320 541 301 541 282.2 541C263.3 541 244.7 541 225.8 541C207 541 188 541 169.2 541C150.3 541 131.7 541 112.8 541C94 541 75 541 56.2 541C37.3 541 18.7 541 9.3 541H0V416Z" fill="#15071C"/>
<path d="M0 438L9.3 436.5C18.7 435 37.3 432 56.2 430C75 428 94 427 112.8 425.2C131.7 423.3 150.3 420.7 169.2 420.5C188 420.3 207 422.7 225.8 426.3C244.7 430 263.3 435 282.2 438C301 441 320 442 338.8 445C357.7 448 376.3 453 395.2 450.5C414 448 433 438 451.8 431.3C470.7 424.7 489.3 421.3 508.2 425.2C527 429 546 440 564.8 438.8C583.7 437.7 602.3 424.3 621.2 426.3C640 428.3 659 445.7 677.8 454.2C696.7 462.7 715.3 462.3 734.2 457.3C753 452.3 772 442.7 790.8 439C809.7 435.3 828.3 437.7 847.2 440.2C866 442.7 885 445.3 903.8 443.2C922.7 441 941.3 434 950.7 430.5L960 427V541H950.7C941.3 541 922.7 541 903.8 541C885 541 866 541 847.2 541C828.3 541 809.7 541 790.8 541C772 541 753 541 734.2 541C715.3 541 696.7 541 677.8 541C659 541 640 541 621.2 541C602.3 541 583.7 541 564.8 541C546 541 527 541 508.2 541C489.3 541 470.7 541 451.8 541C433 541 414 541 395.2 541C376.3 541 357.7 541 338.8 541C320 541 301 541 282.2 541C263.3 541 244.7 541 225.8 541C207 541 188 541 169.2 541C150.3 541 131.7 541 112.8 541C94 541 75 541 56.2 541C37.3 541 18.7 541 9.3 541H0V438Z" fill="#1E1029"/>
<path d="M0 461L9.3 461.8C18.7 462.7 37.3 464.3 56.2 460.3C75 456.3 94 446.7 112.8 443.8C131.7 441 150.3 445 169.2 444.7C188 444.3 207 439.7 225.8 436.8C244.7 434 263.3 433 282.2 438.5C301 444 320 456 338.8 458.3C357.7 460.7 376.3 453.3 395.2 454C414 454.7 433 463.3 451.8 463C470.7 462.7 489.3 453.3 508.2 449.3C527 445.3 546 446.7 564.8 447C583.7 447.3 602.3 446.7 621.2 446.5C640 446.3 659 446.7 677.8 446.5C696.7 446.3 715.3 445.7 734.2 448.7C753 451.7 772 458.3 790.8 460.7C809.7 463 828.3 461 847.2 461.3C866 461.7 885 464.3 903.8 462C922.7 459.7 941.3 452.3 950.7 448.7L960 445V541H950.7C941.3 541 922.7 541 903.8 541C885 541 866 541 847.2 541C828.3 541 809.7 541 790.8 541C772 541 753 541 734.2 541C715.3 541 696.7 541 677.8 541C659 541 640 541 621.2 541C602.3 541 583.7 541 564.8 541C546 541 527 541 508.2 541C489.3 541 470.7 541 451.8 541C433 541 414 541 395.2 541C376.3 541 357.7 541 338.8 541C320 541 301 541 282.2 541C263.3 541 244.7 541 225.8 541C207 541 188 541 169.2 541C150.3 541 131.7 541 112.8 541C94 541 75 541 56.2 541C37.3 541 18.7 541 9.3 541H0V461Z" fill="#281436"/>
<path d="M0 472L9.3 475C18.7 478 37.3 484 56.2 482.5C75 481 94 472 112.8 467.8C131.7 463.7 150.3 464.3 169.2 465.3C188 466.3 207 467.7 225.8 470.7C244.7 473.7 263.3 478.3 282.2 478.2C301 478 320 473 338.8 472.3C357.7 471.7 376.3 475.3 395.2 478.8C414 482.3 433 485.7 451.8 484.2C470.7 482.7 489.3 476.3 508.2 475.2C527 474 546 478 564.8 479.2C583.7 480.3 602.3 478.7 621.2 474.7C640 470.7 659 464.3 677.8 461C696.7 457.7 715.3 457.3 734.2 456.8C753 456.3 772 455.7 790.8 458.5C809.7 461.3 828.3 467.7 847.2 466.8C866 466 885 458 903.8 453.8C922.7 449.7 941.3 449.3 950.7 449.2L960 449V541H950.7C941.3 541 922.7 541 903.8 541C885 541 866 541 847.2 541C828.3 541 809.7 541 790.8 541C772 541 753 541 734.2 541C715.3 541 696.7 541 677.8 541C659 541 640 541 621.2 541C602.3 541 583.7 541 564.8 541C546 541 527 541 508.2 541C489.3 541 470.7 541 451.8 541C433 541 414 541 395.2 541C376.3 541 357.7 541 338.8 541C320 541 301 541 282.2 541C263.3 541 244.7 541 225.8 541C207 541 188 541 169.2 541C150.3 541 131.7 541 112.8 541C94 541 75 541 56.2 541C37.3 541 18.7 541 9.3 541H0V472Z" fill="#341844"/>
<path d="M0 471L9.3 475C18.7 479 37.3 487 56.2 487.5C75 488 94 481 112.8 477C131.7 473 150.3 472 169.2 474.3C188 476.7 207 482.3 225.8 485.3C244.7 488.3 263.3 488.7 282.2 485.8C301 483 320 477 338.8 474.3C357.7 471.7 376.3 472.3 395.2 475.5C414 478.7 433 484.3 451.8 487.3C470.7 490.3 489.3 490.7 508.2 491.7C527 492.7 546 494.3 564.8 492C583.7 489.7 602.3 483.3 621.2 484.3C640 485.3 659 493.7 677.8 493.8C696.7 494 715.3 486 734.2 481.2C753 476.3 772 474.7 790.8 479.2C809.7 483.7 828.3 494.3 847.2 495.2C866 496 885 487 903.8 481.3C922.7 475.7 941.3 473.3 950.7 472.2L960 471V541H950.7C941.3 541 922.7 541 903.8 541C885 541 866 541 847.2 541C828.3 541 809.7 541 790.8 541C772 541 753 541 734.2 541C715.3 541 696.7 541 677.8 541C659 541 640 541 621.2 541C602.3 541 583.7 541 564.8 541C546 541 527 541 508.2 541C489.3 541 470.7 541 451.8 541C433 541 414 541 395.2 541C376.3 541 357.7 541 338.8 541C320 541 301 541 282.2 541C263.3 541 244.7 541 225.8 541C207 541 188 541 169.2 541C150.3 541 131.7 541 112.8 541C94 541 75 541 56.2 541C37.3 541 18.7 541 9.3 541H0V471Z" fill="#401B52"/>
<path d="M0 502L9.3 503.7C18.7 505.3 37.3 508.7 56.2 507.2C75 505.7 94 499.3 112.8 498.7C131.7 498 150.3 503 169.2 504.7C188 506.3 207 504.7 225.8 503.2C244.7 501.7 263.3 500.3 282.2 499.8C301 499.3 320 499.7 338.8 501C357.7 502.3 376.3 504.7 395.2 502.7C414 500.7 433 494.3 451.8 492.7C470.7 491 489.3 494 508.2 494.3C527 494.7 546 492.3 564.8 493.7C583.7 495 602.3 500 621.2 502.8C640 505.7 659 506.3 677.8 508.3C696.7 510.3 715.3 513.7 734.2 514C753 514.3 772 511.7 790.8 511.7C809.7 511.7 828.3 514.3 847.2 514.7C866 515 885 513 903.8 511.7C922.7 510.3 941.3 509.7 950.7 509.3L960 509V541H950.7C941.3 541 922.7 541 903.8 541C885 541 866 541 847.2 541C828.3 541 809.7 541 790.8 541C772 541 753 541 734.2 541C715.3 541 696.7 541 677.8 541C659 541 640 541 621.2 541C602.3 541 583.7 541 564.8 541C546 541 527 541 508.2 541C489.3 541 470.7 541 451.8 541C433 541 414 541 395.2 541C376.3 541 357.7 541 338.8 541C320 541 301 541 282.2 541C263.3 541 244.7 541 225.8 541C207 541 188 541 169.2 541C150.3 541 131.7 541 112.8 541C94 541 75 541 56.2 541C37.3 541 18.7 541 9.3 541H0V502Z" fill="#4E1E60"/>
<path d="M0 526L9.3 527C18.7 528 37.3 530 56.2 530.3C75 530.7 94 529.3 112.8 529C131.7 528.7 150.3 529.3 169.2 527.2C188 525 207 520 225.8 520.2C244.7 520.3 263.3 525.7 282.2 525.8C301 526 320 521 338.8 519.7C357.7 518.3 376.3 520.7 395.2 519.7C414 518.7 433 514.3 451.8 513.5C470.7 512.7 489.3 515.3 508.2 516C527 516.7 546 515.3 564.8 517C583.7 518.7 602.3 523.3 621.2 522C640 520.7 659 513.3 677.8 513.8C696.7 514.3 715.3 522.7 734.2 525C753 527.3 772 523.7 790.8 523.5C809.7 523.3 828.3 526.7 847.2 525.5C866 524.3 885 518.7 903.8 515C922.7 511.3 941.3 509.7 950.7 508.8L960 508V541H950.7C941.3 541 922.7 541 903.8 541C885 541 866 541 847.2 541C828.3 541 809.7 541 790.8 541C772 541 753 541 734.2 541C715.3 541 696.7 541 677.8 541C659 541 640 541 621.2 541C602.3 541 583.7 541 564.8 541C546 541 527 541 508.2 541C489.3 541 470.7 541 451.8 541C433 541 414 541 395.2 541C376.3 541 357.7 541 338.8 541C320 541 301 541 282.2 541C263.3 541 244.7 541 225.8 541C207 541 188 541 169.2 541C150.3 541 131.7 541 112.8 541C94 541 75 541 56.2 541C37.3 541 18.7 541 9.3 541H0V526Z" fill="url(#paint0_linear_69_10)"/>
</g>
<defs>
<linearGradient id="paint0_linear_69_10" x1="480" y1="541" x2="480" y2="508" gradientUnits="userSpaceOnUse">
<stop stop-color="#101010"/>
<stop offset="1" stop-color="#101010"/>
</linearGradient>
<clipPath id="clip0_69_10">
<rect width="960" height="540" fill="white"/>
</clipPath>
</defs>
</svg>
