<svg id="visual" viewBox="0 0 960 540" width="960" height="540" xmlns="http://www.w3.org/2000/svg" xmlns:xlink="http://www.w3.org/1999/xlink" version="1.1"><path d="M0 437L16 431.3C32 425.7 64 414.3 96 412.7C128 411 160 419 192 418.3C224 417.7 256 408.3 288 406.3C320 404.3 352 409.7 384 418.7C416 427.7 448 440.3 480 445.8C512 451.3 544 449.7 576 445.8C608 442 640 436 672 427.7C704 419.3 736 408.7 768 412.5C800 416.3 832 434.7 864 435.5C896 436.3 928 419.7 944 411.3L960 403L960 541L944 541C928 541 896 541 864 541C832 541 800 541 768 541C736 541 704 541 672 541C640 541 608 541 576 541C544 541 512 541 480 541C448 541 416 541 384 541C352 541 320 541 288 541C256 541 224 541 192 541C160 541 128 541 96 541C64 541 32 541 16 541L0 541Z" fill="#15071c"></path><path d="M0 441L16 444C32 447 64 453 96 450.5C128 448 160 437 192 430.2C224 423.3 256 420.7 288 422.7C320 424.7 352 431.3 384 436.7C416 442 448 446 480 447.5C512 449 544 448 576 445C608 442 640 437 672 439.3C704 441.7 736 451.3 768 453.7C800 456 832 451 864 446C896 441 928 436 944 433.5L960 431L960 541L944 541C928 541 896 541 864 541C832 541 800 541 768 541C736 541 704 541 672 541C640 541 608 541 576 541C544 541 512 541 480 541C448 541 416 541 384 541C352 541 320 541 288 541C256 541 224 541 192 541C160 541 128 541 96 541C64 541 32 541 16 541L0 541Z" fill="#1a0c23"></path><path d="M0 449L16 451.7C32 454.3 64 459.7 96 457C128 454.3 160 443.7 192 443.3C224 443 256 453 288 458.3C320 463.7 352 464.3 384 465.3C416 466.3 448 467.7 480 460.2C512 452.7 544 436.3 576 433.7C608 431 640 442 672 448C704 454 736 455 768 448.7C800 442.3 832 428.7 864 423.5C896 418.3 928 421.7 944 423.3L960 425L960 541L944 541C928 541 896 541 864 541C832 541 800 541 768 541C736 541 704 541 672 541C640 541 608 541 576 541C544 541 512 541 480 541C448 541 416 541 384 541C352 541 320 541 288 541C256 541 224 541 192 541C160 541 128 541 96 541C64 541 32 541 16 541L0 541Z" fill="#1f102a"></path><path d="M0 456L16 459C32 462 64 468 96 467.2C128 466.3 160 458.7 192 455.5C224 452.3 256 453.7 288 456.5C320 459.3 352 463.7 384 459.7C416 455.7 448 443.3 480 437.8C512 432.3 544 433.7 576 437.7C608 441.7 640 448.3 672 452.5C704 456.7 736 458.3 768 461.3C800 464.3 832 468.7 864 471.3C896 474 928 475 944 475.5L960 476L960 541L944 541C928 541 896 541 864 541C832 541 800 541 768 541C736 541 704 541 672 541C640 541 608 541 576 541C544 541 512 541 480 541C448 541 416 541 384 541C352 541 320 541 288 541C256 541 224 541 192 541C160 541 128 541 96 541C64 541 32 541 16 541L0 541Z" fill="#241331"></path><path d="M0 485L16 481C32 477 64 469 96 464.7C128 460.3 160 459.7 192 458.5C224 457.3 256 455.7 288 457.5C320 459.3 352 464.7 384 464.7C416 464.7 448 459.3 480 461.3C512 463.3 544 472.7 576 477C608 481.3 640 480.7 672 478.8C704 477 736 474 768 472.3C800 470.7 832 470.3 864 464.8C896 459.3 928 448.7 944 443.3L960 438L960 541L944 541C928 541 896 541 864 541C832 541 800 541 768 541C736 541 704 541 672 541C640 541 608 541 576 541C544 541 512 541 480 541C448 541 416 541 384 541C352 541 320 541 288 541C256 541 224 541 192 541C160 541 128 541 96 541C64 541 32 541 16 541L0 541Z" fill="#2a1539"></path><path d="M0 480L16 480.5C32 481 64 482 96 480.2C128 478.3 160 473.7 192 472.5C224 471.3 256 473.7 288 477C320 480.3 352 484.7 384 481.5C416 478.3 448 467.7 480 467.2C512 466.7 544 476.3 576 481.7C608 487 640 488 672 486.3C704 484.7 736 480.3 768 475.8C800 471.3 832 466.7 864 464C896 461.3 928 460.7 944 460.3L960 460L960 541L944 541C928 541 896 541 864 541C832 541 800 541 768 541C736 541 704 541 672 541C640 541 608 541 576 541C544 541 512 541 480 541C448 541 416 541 384 541C352 541 320 541 288 541C256 541 224 541 192 541C160 541 128 541 96 541C64 541 32 541 16 541L0 541Z" fill="#311740"></path><path d="M0 470L16 471.3C32 472.7 64 475.3 96 479.7C128 484 160 490 192 488C224 486 256 476 288 470.7C320 465.3 352 464.7 384 465C416 465.3 448 466.7 480 471.5C512 476.3 544 484.7 576 489.3C608 494 640 495 672 491.8C704 488.7 736 481.3 768 479.5C800 477.7 832 481.3 864 483.7C896 486 928 487 944 487.5L960 488L960 541L944 541C928 541 896 541 864 541C832 541 800 541 768 541C736 541 704 541 672 541C640 541 608 541 576 541C544 541 512 541 480 541C448 541 416 541 384 541C352 541 320 541 288 541C256 541 224 541 192 541C160 541 128 541 96 541C64 541 32 541 16 541L0 541Z" fill="#371948"></path><path d="M0 478L16 481.2C32 484.3 64 490.7 96 495.3C128 500 160 503 192 504.7C224 506.3 256 506.7 288 505.2C320 503.7 352 500.3 384 495.7C416 491 448 485 480 485.7C512 486.3 544 493.7 576 497.8C608 502 640 503 672 501.8C704 500.7 736 497.3 768 492.5C800 487.7 832 481.3 864 482.3C896 483.3 928 491.7 944 495.8L960 500L960 541L944 541C928 541 896 541 864 541C832 541 800 541 768 541C736 541 704 541 672 541C640 541 608 541 576 541C544 541 512 541 480 541C448 541 416 541 384 541C352 541 320 541 288 541C256 541 224 541 192 541C160 541 128 541 96 541C64 541 32 541 16 541L0 541Z" fill="#3e1b4f"></path><path d="M0 485L16 487.8C32 490.7 64 496.3 96 496.5C128 496.7 160 491.3 192 490.5C224 489.7 256 493.3 288 496.3C320 499.3 352 501.7 384 504.3C416 507 448 510 480 507.2C512 504.3 544 495.7 576 491C608 486.3 640 485.7 672 489.5C704 493.3 736 501.7 768 505.2C800 508.7 832 507.3 864 504C896 500.7 928 495.3 944 492.7L960 490L960 541L944 541C928 541 896 541 864 541C832 541 800 541 768 541C736 541 704 541 672 541C640 541 608 541 576 541C544 541 512 541 480 541C448 541 416 541 384 541C352 541 320 541 288 541C256 541 224 541 192 541C160 541 128 541 96 541C64 541 32 541 16 541L0 541Z" fill="#451c57"></path><path d="M0 509L16 507.3C32 505.7 64 502.3 96 500.2C128 498 160 497 192 497C224 497 256 498 288 500.2C320 502.3 352 505.7 384 506.5C416 507.3 448 505.7 480 506.2C512 506.7 544 509.3 576 510.8C608 512.3 640 512.7 672 513.3C704 514 736 515 768 514.7C800 514.3 832 512.7 864 513.3C896 514 928 517 944 518.5L960 520L960 541L944 541C928 541 896 541 864 541C832 541 800 541 768 541C736 541 704 541 672 541C640 541 608 541 576 541C544 541 512 541 480 541C448 541 416 541 384 541C352 541 320 541 288 541C256 541 224 541 192 541C160 541 128 541 96 541C64 541 32 541 16 541L0 541Z" fill="#4d1e5f"></path><path d="M0 523L16 521.2C32 519.3 64 515.7 96 515C128 514.3 160 516.7 192 516.3C224 516 256 513 288 511.3C320 509.7 352 509.3 384 511C416 512.7 448 516.3 480 517.8C512 519.3 544 518.7 576 517.2C608 515.7 640 513.3 672 511.5C704 509.7 736 508.3 768 511C800 513.7 832 520.3 864 523.8C896 527.3 928 527.7 944 527.8L960 528L960 541L944 541C928 541 896 541 864 541C832 541 800 541 768 541C736 541 704 541 672 541C640 541 608 541 576 541C544 541 512 541 480 541C448 541 416 541 384 541C352 541 320 541 288 541C256 541 224 541 192 541C160 541 128 541 96 541C64 541 32 541 16 541L0 541Z" fill="#541f66"></path><path d="M0 519L16 520.2C32 521.3 64 523.7 96 523.8C128 524 160 522 192 522C224 522 256 524 288 526.3C320 528.7 352 531.3 384 532.5C416 533.7 448 533.3 480 531.3C512 529.3 544 525.7 576 524.3C608 523 640 524 672 525.8C704 527.7 736 530.3 768 531.5C800 532.7 832 532.3 864 532C896 531.7 928 531.3 944 531.2L960 531L960 541L944 541C928 541 896 541 864 541C832 541 800 541 768 541C736 541 704 541 672 541C640 541 608 541 576 541C544 541 512 541 480 541C448 541 416 541 384 541C352 541 320 541 288 541C256 541 224 541 192 541C160 541 128 541 96 541C64 541 32 541 16 541L0 541Z" fill="#5c206e"></path></svg>